<svg viewBox="0 0 100 22" fill="none" xmlns="http://www.w3.org/2000/svg">
<path d="M72.3664 13.3783C70.4616 13.3783 68.6182 13.3783 66.7691 13.3783C66.4747 13.3855 66.1803 13.3649 65.8899 13.3168C65.1411 13.1703 64.7748 12.7028 64.7616 11.9277C64.7484 11.0895 65.0957 10.5943 65.8401 10.4184C66.0521 10.3657 66.2693 10.3367 66.4877 10.332C68.882 10.332 71.2748 10.3173 73.6676 10.332C74.8984 10.332 75.3805 10.8478 75.3879 12.0903C75.4245 18.3061 70.2872 22.7444 64.1403 21.8052C59.5408 21.1019 56.3626 17.8489 55.7237 13.2142C55.3135 10.2324 55.5772 7.35306 57.1231 4.71555C59.214 1.13878 62.4816 -0.229799 66.4716 0.031022C69.556 0.233232 72.1115 1.52708 73.864 4.15581C74.2036 4.69124 74.4674 5.27114 74.6479 5.87898C74.9322 6.78307 74.5189 7.54941 73.6969 7.81609C72.8749 8.08278 72.2155 7.76481 71.8287 6.86952C70.9378 4.81812 69.3817 3.49936 67.2116 3.09201C63.1996 2.33592 59.6199 4.35509 58.7598 8.91066C58.2968 11.365 58.5034 13.7769 59.9232 15.944C61.6083 18.5083 64.133 19.2439 66.7822 18.8746C69.8007 18.4453 71.7539 16.5463 72.3664 13.7461C72.3757 13.6237 72.3757 13.5007 72.3664 13.3783Z" fill="#949490"/>
<path d="M10.6968 15.9087C9.15968 15.9087 7.61967 15.9453 6.08551 15.8897C5.4994 15.8691 5.2166 16.0933 4.97189 16.5798C4.29493 17.9293 3.58426 19.2642 2.87507 20.5991C2.38273 21.5266 1.6369 21.8138 0.832455 21.4094C0.0280121 21.005 -0.229879 20.1346 0.24634 19.2115C3.32149 13.2282 6.40641 7.24788 9.50109 1.27049C9.76924 0.751776 10.0975 0.301932 10.7539 0.293141C11.4411 0.282884 11.7987 0.732727 12.0727 1.27928L19.8534 16.4523C20.3208 17.3637 20.8615 18.2488 21.2175 19.2027C21.4022 19.6935 21.4461 20.4101 21.2175 20.8497C20.6695 21.9061 19.2878 21.7904 18.7104 20.7031C18.0012 19.3682 17.2979 18.0304 16.6458 16.6692C16.3674 16.0831 16.0363 15.8618 15.3681 15.8882C13.8164 15.9497 12.2514 15.9087 10.6968 15.9087ZM14.6692 12.8726L10.7568 5.35717L6.88702 12.8726H14.6692Z" fill="#949490"/>
<path d="M78.5276 19.8606C78.6084 19.6023 78.7063 19.3497 78.8207 19.1045C81.8685 13.1554 84.9197 7.20881 87.9743 1.26463C88.2381 0.748845 88.5854 0.300467 89.2345 0.293141C89.9188 0.282884 90.2778 0.732727 90.5532 1.28074C93.6157 7.24544 96.6786 13.2106 99.7421 19.1763C100.233 20.1361 99.9736 21.0094 99.1266 21.4123C98.2797 21.8153 97.5793 21.4988 97.065 20.5009C96.369 19.1353 95.6817 17.7594 94.9491 16.4113C94.8677 16.2807 94.7586 16.1697 94.6294 16.0861C94.5003 16.0025 94.3543 15.9485 94.2018 15.9278C90.9078 15.8955 87.6134 15.8955 84.3184 15.9278C84.176 15.9445 84.039 15.9926 83.9174 16.0686C83.7958 16.1446 83.6926 16.2466 83.6151 16.3673C82.8063 17.8136 82.0531 19.2906 81.2633 20.7471C80.8853 21.4446 80.2918 21.7098 79.6237 21.5339C78.9555 21.3581 78.5144 20.7735 78.5276 19.8606ZM93.1424 12.8946L89.2345 5.35717C87.8996 7.95073 86.6424 10.3904 85.3573 12.8888L93.1424 12.8946Z" fill="#949490"/>
<path d="M37.5269 2.91411C41.6136 2.92144 44.8797 6.17584 44.8372 10.1937C44.7962 14.273 41.5916 17.4073 37.4698 17.3999C36.5186 17.3964 35.5775 17.2055 34.7001 16.8382C33.8227 16.471 33.0262 15.9345 32.3562 15.2594C31.6861 14.5843 31.1556 13.7838 30.7949 12.9037C30.4342 12.0236 30.2504 11.0811 30.254 10.1299C30.2575 9.17877 30.4484 8.23763 30.8157 7.36024C31.1829 6.48285 31.7194 5.6864 32.3945 5.01635C33.0696 4.3463 33.8701 3.81578 34.7502 3.45507C35.6303 3.09437 36.5728 2.91055 37.524 2.91411H37.5269ZM33.8256 10.1438C33.8256 12.2934 35.4228 13.9228 37.5328 13.9184C39.5915 13.9214 41.3205 12.1938 41.3205 10.1585C41.3205 8.16131 39.5827 6.42934 37.5855 6.42641C35.4301 6.42348 33.8285 8.01038 33.8256 10.1438Z" fill="#92928E"/>
<path d="M33.8281 10.1432C33.8281 8.00976 35.4399 6.42285 37.5822 6.42579C39.5794 6.42579 41.3128 8.16069 41.3172 10.1579C41.3231 12.1932 39.594 13.9207 37.5353 13.9207C35.4253 13.9207 33.8252 12.2928 33.8281 10.1432Z" fill="#797975"/>
</svg>
