<svg data-v-3312c4b8="" viewBox="0 0 206 30" preserveAspectRatio="" fill="#fff" xmlns="http://www.w3.org/2000/svg" class="w-100 h-100"><g data-v-3312c4b8=""><path data-v-3312c4b8="" d="M40.981 29.0016C38.8654 28.3361 37.038 27.365 35.5098 26.0829C33.9815 24.8009 32.785 23.2297 31.9257 21.3639C31.0664 19.4981 30.6367 17.3759 30.6367 14.9918C30.6367 12.6077 31.0718 10.4855 31.9366 8.61975C32.8013 6.75396 34.0032 5.18822 35.5369 3.91162C37.0706 2.63503 38.898 1.66939 41.0191 1.00382C43.1347 0.332788 45.4462 0 47.948 0C50.4497 0 52.7612 0.332788 54.8768 0.998363C56.9924 1.66394 58.8253 2.63502 60.3753 3.90617C61.9253 5.18276 63.1327 6.7485 64.0083 8.6143C64.8785 10.4801 65.3136 12.6023 65.3136 14.9864C65.3136 17.3704 64.8785 19.4926 64.0137 21.3584C63.149 23.2242 61.9416 24.7954 60.4025 26.0775C58.8579 27.3595 57.0251 28.3306 54.904 28.9962C52.7775 29.6618 50.4606 29.9945 47.9425 29.9945C45.419 30 43.0967 29.6672 40.981 29.0016ZM53.7728 26.0011C55.4805 25.4174 56.9217 24.599 58.1074 23.5461C59.2875 22.4932 60.1904 21.2384 60.8104 19.7872C61.4304 18.3361 61.7404 16.7321 61.7404 14.9864C61.7404 13.2515 61.4304 11.6585 60.8104 10.2128C60.1904 8.76705 59.2875 7.52319 58.1074 6.48663C56.9272 5.44463 55.4805 4.63721 53.7728 4.05892C52.065 3.48063 50.1234 3.19149 47.948 3.19149C45.7725 3.19149 43.8363 3.48063 42.134 4.05892C40.4317 4.63721 38.9959 5.44463 37.8212 6.48663C36.6464 7.52864 35.7491 8.76705 35.129 10.2128C34.509 11.6585 34.199 13.2515 34.199 14.9864C34.199 16.7376 34.509 18.3361 35.129 19.7872C35.7491 21.2384 36.6464 22.4932 37.8212 23.5461C38.9959 24.599 40.4372 25.4174 42.134 26.0011C43.8363 26.5848 45.7725 26.874 47.948 26.874C50.1234 26.8794 52.065 26.5848 53.7728 26.0011Z" fill="#white"/><path data-v-3312c4b8="" d="M89.689 0.574219C91.3804 0.574219 92.8815 0.754251 94.1922 1.10886C95.5029 1.46347 96.6015 1.99266 97.4934 2.68551C98.3854 3.38382 99.0598 4.25125 99.5112 5.28235C99.968 6.31344 100.196 7.50275 100.196 8.85027C100.196 10.9452 99.5982 12.6473 98.4017 13.9566C97.2052 15.2714 95.3724 16.5317 87.9758 16.5317L101.034 29.4122H96.4764L83.7064 17.0499H74.4063V29.4122H70.8223V0.574219H89.689ZM95.3343 12.6419C96.4982 11.7744 97.0801 10.5415 97.0801 8.94301C97.0801 8.13014 96.9332 7.40455 96.645 6.76625C96.3567 6.12795 95.9162 5.5824 95.3288 5.12959C94.7415 4.67678 94.0073 4.33308 93.1316 4.09304C92.256 3.853 90.7984 3.73297 89.6183 3.73297H74.4118V13.9457H89.6183C91.9786 13.9457 94.1704 13.5093 95.3343 12.6419Z" fill="#fff"/><path data-v-3312c4b8="" d="M194.66 0.574219C196.351 0.574219 197.858 0.754251 199.163 1.10886C200.474 1.46347 201.572 1.99266 202.464 2.68551C203.356 3.38382 204.03 4.25125 204.482 5.28235C204.939 6.31344 205.162 7.50275 205.162 8.85027C205.162 10.9452 204.563 12.6473 203.372 13.9566C202.176 15.2714 200.343 16.5317 192.946 16.5317L206.005 29.4122H201.447L188.677 17.0499H179.377V29.4122H175.793V0.574219H194.66ZM200.3 12.6419C201.463 11.7744 202.045 10.5415 202.045 8.94301C202.045 8.13014 201.899 7.40455 201.61 6.76625C201.322 6.12795 200.881 5.5824 200.294 5.12959C199.707 4.67678 198.973 4.33308 198.097 4.09304C197.216 3.853 195.764 3.73297 194.584 3.73297H179.377V13.9457H194.584C196.944 13.9457 199.141 13.5093 200.3 12.6419Z" fill="#fff" class="animated-letter"/><path data-v-3312c4b8="" d="M110.422 0.574219L133.025 24.655V0.574219H136.478V29.4122H132.987L109.911 4.83499V29.4122H106.457V0.574219H110.422Z" fill="#fff" class="animated-letter"/><path data-v-3312c4b8="" d="M169.805 0.574219V3.76571H147.789V13.5857H169.212V16.6517H147.789V26.2916H170.278V29.4122H144.184V0.574219H169.805Z" fill="#fff" class="animated-letter"/><path data-v-3312c4b8="" d="M25.6215 0.574219V3.76571H3.60039V13.5857H25.0287V16.6517H3.60039V29.4122H0V0.574219H25.6215Z" fill="#fff"/></g><defs data-v-3312c4b8=""/></svg>