<svg viewBox="0 0 69 28" fill="none" xmlns="http://www.w3.org/2000/svg">
<g style="mix-blend-mode:multiply" clip-path="url(#clip0_1116_2)">
<path d="M11.9028 0C11.9545 0.0220218 12.0074 0.0412615 12.0613 0.0576369C12.8901 0.270317 13.4013 0.900864 13.4186 1.73429C13.4376 2.65994 12.9448 3.40576 12.1506 3.65418C11.7437 3.78085 11.3054 3.76211 10.9108 3.60115C10.6983 3.51259 10.481 3.43563 10.2601 3.3706C9.59786 3.19769 9.014 3.51009 8.79556 4.15389C8.71659 4.38444 8.68028 4.634 8.62265 4.90317C9.08374 4.96081 9.50852 5.00057 9.92812 5.0732C11.2849 5.31008 12.542 5.77694 13.5592 6.74467C15.5368 8.62363 15.4146 11.6893 13.2941 13.4052C12.2134 14.2795 10.9396 14.7308 9.59613 14.9746C8.531 15.17 7.44916 15.2749 6.37999 15.4507C5.93642 15.5279 5.50094 15.646 5.07913 15.8035C4.83751 15.8961 4.61969 16.0416 4.44167 16.2294C3.95809 16.7395 4.12524 17.4611 4.78749 17.687C5.15911 17.8172 5.54711 17.8948 5.94022 17.9176C7.28316 17.9792 8.62726 18.0035 9.97135 18.0432C11.1535 18.0778 12.3304 18.1585 13.4716 18.5043C13.6365 18.5545 13.799 18.6132 13.9592 18.6772C15.6976 19.3689 16.4007 20.6945 16.2584 22.5349C16.1091 24.4571 14.9702 25.6801 13.3189 26.4974C11.9558 27.1723 10.4866 27.438 8.98403 27.555C8.86184 27.5643 8.74138 27.5908 8.61976 27.6092H6.42726C6.29527 27.5908 6.16213 27.5758 6.03071 27.5516C5.10507 27.3977 4.16847 27.2893 3.25723 27.0749C2.32524 26.8553 1.46587 26.4409 0.778843 25.7395C-0.362367 24.5718 -0.239023 22.868 1.08028 21.9049C1.43936 21.6421 1.86472 21.4703 2.26242 21.2617C2.36474 21.2157 2.46962 21.1757 2.57654 21.1418C2.53664 21.105 2.49469 21.0706 2.45089 21.0386C0.725818 19.9804 0.809391 17.2772 2.22034 16.1493C2.731 15.7401 3.29527 15.4317 3.92409 15.2795C4.70276 15.0911 5.49469 14.9602 6.22034 14.8184C5.9604 14.7527 5.61688 14.6974 5.29815 14.5781C4.68028 14.3475 4.04397 14.1383 3.47279 13.8179C0.803626 12.3193 0.797286 9.20288 2.32005 7.36253C3.27682 6.20461 4.53561 5.54467 5.96616 5.19654C6.61458 5.03804 7.28259 4.9608 7.94311 4.84668C8.0336 4.38559 8.09354 3.89971 8.22783 3.43285C8.68893 1.8317 9.40881 0.439769 11.214 0.000576052L11.9028 0ZM7.61804 26.8951C9.21803 26.8674 10.3356 26.7187 11.2843 26.4006C11.9483 26.1781 12.5627 25.872 13.018 25.317C13.9033 24.2375 13.5592 22.7971 12.2636 22.2997C11.7798 22.1155 11.2712 22.0049 10.7546 21.9718C9.49988 21.8939 8.24109 21.8732 6.98403 21.8444C5.81285 21.8179 4.64051 21.8259 3.49527 21.521C3.40281 21.5068 3.30827 21.5251 3.22783 21.5729C1.68605 22.4132 1.44109 24.4547 2.77365 25.5983C3.13619 25.9107 3.58057 26.1527 4.02726 26.3383C5.1725 26.8156 6.39498 26.8761 7.61804 26.8951ZM5.73561 10.2594C5.75348 10.6242 5.73561 11.1107 5.8117 11.5804C5.90896 12.202 6.057 12.8147 6.25435 13.4121C6.4359 13.9452 6.85723 14.3037 7.41688 14.4363C8.52697 14.6991 9.697 14.4432 10.1685 12.985C10.2128 12.8484 10.2555 12.7107 10.2872 12.5706C10.5823 11.2749 10.565 9.96138 10.4878 8.64726C10.448 7.96542 10.3385 7.29279 10.0445 6.66628C9.78633 6.117 9.38345 5.73256 8.77654 5.58617C7.53389 5.2853 6.56732 5.80576 6.14138 7.01787C5.78922 8.02997 5.76962 9.08761 5.73561 10.2594Z" fill="#767672"/>
<path d="M57.8427 4.97893V7.26654C57.9701 7.17317 58.0583 7.11092 58.1442 7.04521C59.1303 6.28902 60.1574 5.5991 61.3453 5.19622C64.2427 4.21178 67.0347 5.43369 68.2963 8.22677C69.596 11.1029 69.1765 15.7484 66.3632 18.3956C64.7793 19.885 62.8779 20.5858 60.7321 20.6919C59.8397 20.7377 58.9455 20.6465 58.0808 20.4216C58.0046 20.408 57.9275 20.3993 57.8502 20.3956C57.8502 20.5052 57.8502 20.5985 57.8502 20.6919C57.8502 21.7968 57.8329 22.9011 57.8537 24.0054C57.8649 24.4457 57.9175 24.884 58.011 25.3144C58.1263 25.8464 58.4848 26.1789 59.0076 26.3271C59.2842 26.4043 59.5678 26.4579 59.8462 26.5305C60.0473 26.5824 60.2047 26.6867 60.1799 26.9276C60.1574 27.1536 60.007 27.2625 59.7966 27.2902C59.6918 27.3021 59.5863 27.3071 59.4808 27.3052C57.0024 27.3052 54.524 27.3052 52.0456 27.3052C51.9303 27.3052 51.7885 27.3242 51.7107 27.266C51.5954 27.1784 51.4646 27.0354 51.4542 26.9052C51.4456 26.802 51.5839 26.6383 51.6969 26.5841C51.8917 26.4896 52.1194 26.4642 52.3309 26.3997C53.0842 26.1691 53.4963 25.6539 53.5753 24.8775C53.6126 24.5244 53.6319 24.1697 53.6329 23.8147C53.6368 19.2529 53.6368 14.6907 53.6329 10.1282C53.6292 9.83077 53.61 9.53373 53.5753 9.2383C53.5032 8.56568 53.1718 8.06712 52.5482 7.78239C52.2704 7.65501 51.9805 7.55184 51.6923 7.4481C51.509 7.38181 51.2992 7.33282 51.2969 7.09363C51.2946 6.85444 51.513 6.78815 51.6929 6.74032C52.3321 6.57086 52.9816 6.43887 53.6168 6.25501C54.9142 5.87922 56.2053 5.47922 57.4986 5.08902C57.6006 5.05789 57.6998 5.02447 57.8427 4.97893ZM64.728 13.3991C64.641 12.6498 64.5949 11.8884 64.4566 11.1467C64.2329 9.95127 63.7822 8.84464 62.9113 7.95703C62.188 7.21985 61.3246 6.83599 60.2675 6.96222C59.3367 7.07288 58.596 7.55127 57.9298 8.16395C57.8721 8.21697 57.8485 8.33225 57.8485 8.4187C57.8485 10.9547 57.8375 13.4873 57.856 16.021C57.8623 16.8758 57.9638 17.7265 58.3055 18.5265C58.6093 19.2389 59.1067 19.7415 59.8836 19.9098C60.9609 20.1432 61.9188 19.885 62.7476 19.1605C63.3321 18.6516 63.7211 18.0043 64.0076 17.2936C64.5107 16.0475 64.6606 14.7374 64.728 13.3991Z" fill="#767672"/>
<path d="M42.909 20.8688C41.0283 20.8239 39.2669 20.3985 37.7217 19.2879C35.6698 17.8106 34.683 15.7484 34.566 13.2613C34.4634 11.0856 35.0513 9.11726 36.532 7.4746C37.8047 6.06365 39.4231 5.28037 41.283 4.99103C43.358 4.66826 45.3706 4.88152 47.2404 5.88556C49.5614 7.13224 50.8715 9.10342 51.2173 11.7069C51.4709 13.6314 51.1637 15.4637 50.1263 17.1247C48.8536 19.1657 46.9562 20.2792 44.6231 20.6856C44.0565 20.7847 43.4784 20.8101 42.909 20.8688ZM46.7245 12.8487C46.6456 11.8735 46.5989 10.8948 46.4802 9.92475C46.3493 8.85328 46.06 7.82446 45.4773 6.89074C44.3113 5.02331 41.4427 5.03195 40.3124 6.94262C39.9265 7.59633 39.6568 8.31202 39.5153 9.05789C39.0577 11.4095 39.0663 13.772 39.4173 16.1334C39.5632 17.1132 39.8375 18.066 40.4243 18.8925C41.5977 20.5455 44.0802 20.6245 45.3015 19.0077C45.6692 18.5219 45.9355 17.9311 46.1303 17.349C46.6116 15.8936 46.664 14.3732 46.7217 12.8487H46.7245Z" fill="#767672"/>
<path d="M24.6637 20.8681C22.7318 20.8191 20.9335 20.3672 19.364 19.1966C17.6482 17.9176 16.6966 16.1816 16.4078 14.0819C16.1963 12.5436 16.341 11.0335 16.9554 9.59314C17.8326 7.5355 19.3439 6.1257 21.4511 5.40466C24.0274 4.52167 26.5865 4.61677 29.0159 5.89227C31.39 7.13838 32.6966 9.17296 33.0015 11.8248C33.2585 14.0617 32.775 16.1245 31.3375 17.9026C30.0695 19.4744 28.3796 20.3418 26.4113 20.6813C25.8332 20.7822 25.2459 20.8087 24.6637 20.8681ZM20.8897 12.8266C20.9681 13.8208 21.0171 14.8185 21.1335 15.8081C21.2562 16.8519 21.5145 17.8663 22.0989 18.7632C22.3715 19.1897 22.7456 19.5421 23.1877 19.7886C23.6298 20.0352 24.1261 20.1683 24.6323 20.1761C25.1384 20.1839 25.6386 20.066 26.0881 19.8331C26.5376 19.6002 26.9223 19.2595 27.2078 18.8416C27.6718 18.177 27.9358 17.4254 28.0914 16.641C28.5565 14.3003 28.5525 11.9476 28.1946 9.59602C28.0418 8.59544 27.7594 7.62714 27.1617 6.78507C25.9145 5.02887 23.3479 5.04847 22.1594 6.8427C21.8695 7.29503 21.6422 7.7846 21.4839 8.29804C21.0084 9.76605 20.9508 11.2952 20.8897 12.8266Z" fill="#767672"/>
</g>
<defs>
<clipPath id="clip0_1116_2">
<rect width="69" height="27.6081" fill="white"/>
</clipPath>
</defs>
</svg>
