<svg viewBox="0 0 97 20" fill="none" xmlns="http://www.w3.org/2000/svg">
<g style="mix-blend-mode:multiply" clip-path="url(#clip0_1116_84)">
<path d="M0.000713414 3.49378C0.744645 3.47452 1.49072 3.48023 2.2318 3.42816C2.71824 3.39393 2.84163 3.73487 2.95575 4.05227C3.51923 5.62572 4.05703 7.20773 4.60696 8.78547C4.90415 9.63758 5.20633 10.4883 5.51351 11.3375C5.5342 11.3953 5.5884 11.4402 5.6797 11.5601C5.81308 11.3197 5.95145 11.1371 6.02135 10.9317C6.37798 9.89816 6.70608 8.8568 7.05558 7.82186C7.40508 6.78691 7.76884 5.7534 8.12547 4.72559C8.24031 4.39463 8.32519 4.04585 8.49423 3.74557C8.57911 3.59507 8.81876 3.46026 8.99779 3.44885C9.5092 3.40962 10.0263 3.43173 10.5413 3.43601C10.9493 3.43601 11.067 3.59863 10.9279 4.00662C10.7139 4.63215 10.4764 5.24912 10.2517 5.87037C9.87511 6.90959 9.50207 7.95024 9.12547 8.98947C8.76242 9.98803 8.39223 10.9866 8.03204 11.993C7.78097 12.6906 7.52063 13.386 7.30094 14.0936C7.09909 14.7448 6.96571 14.8696 6.28098 14.8682C5.7389 14.8682 5.19682 14.8632 4.65474 14.8682C4.51766 14.8775 4.3815 14.8397 4.2688 14.7611C4.15609 14.6825 4.07359 14.5678 4.03492 14.4359C3.5927 13.2063 3.17045 11.9695 2.72252 10.7419C2.2696 9.50159 1.78815 8.27192 1.33309 7.03299C0.976455 6.0708 0.654061 5.09934 0.300283 4.13786C0.244649 3.98736 0.101996 3.86825 0 3.73487L0.000713414 3.49378Z" fill="#767672"/>
<path d="M80.2664 9.14121C80.2664 7.44793 80.2664 5.75441 80.2664 4.06065C80.2664 3.46793 80.3021 3.43655 80.8834 3.43583C81.2764 3.43583 81.668 3.43013 82.0624 3.43583C82.5082 3.44439 82.603 3.54425 82.613 3.99788C82.6194 4.29602 82.603 4.59488 82.6273 4.8916C82.6351 4.99288 82.7343 5.08703 82.792 5.18403C82.8684 5.1177 82.9639 5.06421 83.0167 4.9829C83.4868 4.2625 84.1922 3.89731 84.9818 3.64482C86.016 3.31458 87.0795 3.46294 88.1315 3.43797C88.5017 3.4287 88.6308 3.70758 88.7364 3.99859C89.2342 5.4099 89.7304 6.82192 90.2249 8.23466C90.5694 9.22823 90.9011 10.2268 91.2413 11.2218C91.2735 11.3388 91.3256 11.4493 91.3954 11.5485C91.4567 11.6248 91.5766 11.7118 91.655 11.699C91.7335 11.6861 91.7934 11.552 91.8255 11.4586C92.3248 10.0045 92.82 8.54873 93.3112 7.0913C93.6586 6.05493 93.9917 5.01357 94.3326 3.97506C94.4439 3.63697 94.6415 3.418 95.038 3.42941C95.5373 3.44368 96.0409 3.42941 96.543 3.43441C96.9546 3.43441 97.088 3.61985 96.946 3.9936C96.3882 5.46934 95.8169 6.94008 95.267 8.41582C94.8055 9.65476 94.3804 10.9065 93.9161 12.1448C93.3198 13.7353 92.7321 15.3316 92.0787 16.8994C91.7128 17.7767 91.1993 18.5841 90.2784 19.0135C90.1131 19.102 89.933 19.1597 89.7471 19.1839C88.8555 19.2403 87.9639 19.2724 87.0695 19.3159C86.8156 19.328 86.6793 19.2032 86.6736 18.9593C86.6622 18.512 86.6679 18.0648 86.6701 17.6183C86.6701 17.3402 86.8327 17.2546 87.0916 17.2446C87.5643 17.2376 88.0362 17.2047 88.5053 17.1461C89.1337 17.0534 89.4325 16.5713 89.7278 16.0648C90.2906 15.1076 89.9824 14.2325 89.5994 13.3252C89.2007 12.3816 88.8605 11.413 88.4939 10.4558C88.1505 9.56037 87.8075 8.66547 87.4646 7.77104C87.2913 7.31811 87.108 6.86876 86.9554 6.40871C86.7949 5.92654 86.6137 5.79887 86.1116 5.75821C84.4504 5.62341 83.2585 6.88089 82.9297 8.30242C82.6844 9.35376 82.7528 10.4023 82.7336 11.455C82.7172 12.403 82.7336 13.3516 82.7279 14.3002C82.7279 14.7938 82.6515 14.8594 82.1572 14.8601H80.8149C80.3156 14.8601 80.2678 14.8181 80.2643 14.2974C80.2585 13.5128 80.2643 12.7282 80.2643 11.9393C80.2657 11.0092 80.2664 10.0765 80.2664 9.14121Z" fill="#767672"/>
<path d="M78.1028 9.35211C78.1028 10.3414 78.0978 11.33 78.1028 12.3186C78.1078 12.9976 78.2662 13.1659 78.9345 13.1795C79.197 13.1852 79.3097 13.2872 79.3132 13.5361C79.3132 13.631 79.3211 13.7258 79.3189 13.8214C79.2968 15.1459 79.5265 14.8157 78.2177 15.1203C77.4794 15.2922 76.7619 15.1331 76.2013 14.5496C76.1366 14.4809 76.0827 14.4028 76.0415 14.3178C75.8133 13.8642 75.7091 13.8578 75.2911 14.1267C73.9053 15.0175 72.406 15.3606 70.7655 15.0311C69.9139 14.8599 69.1921 14.499 68.6108 13.8414C68.1429 13.3114 67.9688 12.6845 67.951 12.0111C67.9161 10.4719 68.3875 9.33642 70.0458 8.80147C70.7627 8.5718 71.5137 8.44484 72.2569 8.30219C73.0287 8.15954 73.809 8.06539 74.585 7.94556C75.2013 7.8507 75.6485 7.45555 75.722 6.94699C75.8347 6.16241 75.6078 5.66312 74.9374 5.39636C73.8432 4.95343 72.7263 4.93488 71.697 5.53046C71.3404 5.73516 71.1079 6.18095 70.8825 6.5547C70.7291 6.81005 70.5794 6.9313 70.2798 6.91775C69.8069 6.89707 69.3312 6.91276 68.8533 6.91062C68.4367 6.91062 68.3155 6.80291 68.3939 6.41133C68.6015 5.37282 69.0972 4.50408 70.043 3.97127C71.4823 3.161 73.0387 3.02263 74.6471 3.25159C75.5337 3.37783 76.3589 3.63318 77.0579 4.2202C77.6727 4.73446 78.0415 5.3821 78.0686 6.17453C78.1042 7.22944 78.0771 8.2865 78.0771 9.34284L78.1028 9.35211ZM75.6485 10.3585C75.6485 10.0547 75.6592 9.76937 75.6485 9.48549C75.6371 9.25725 75.5144 9.20518 75.2862 9.25368C74.4417 9.43128 73.5843 9.55468 72.7477 9.76224C72.1649 9.90489 71.5637 10.0782 71.0515 10.3764C70.2085 10.8664 70.1157 12.5111 71.2548 12.877C71.7672 13.0365 72.2965 13.1354 72.8318 13.1716C73.4864 13.2208 74.1384 13.0474 74.682 12.6795C75.5294 12.1189 75.7348 11.2865 75.6506 10.3585H75.6485Z" fill="#767672"/>
<path d="M37.5123 9.29145C37.4809 7.52612 37.8982 6.04824 39.0244 4.83213C39.8653 3.92486 40.9402 3.46267 42.1528 3.26938C43.4324 3.06396 44.6727 3.19235 45.8532 3.69734C47.0835 4.22301 47.9609 5.13884 48.4844 6.37492C49.1452 7.90943 49.236 9.62954 48.7404 11.2251C48.147 13.2008 46.8489 14.5061 44.7683 14.974C43.4006 15.2971 41.9656 15.1762 40.6713 14.6288C39.5008 14.1438 38.6656 13.2971 38.1278 12.1409C37.6849 11.1866 37.4738 10.1973 37.5123 9.29145ZM39.8803 9.19016C39.9901 9.70157 40.0807 10.218 40.2127 10.7237C40.6563 12.4241 41.9873 13.4205 43.8282 13.1488C44.657 13.0254 45.3261 12.6138 45.744 11.9162C46.8139 10.1331 46.8353 8.31071 45.8111 6.49546C44.8838 4.85496 42.3817 4.67878 41.157 5.91629C40.2612 6.82213 39.9737 7.94695 39.8803 9.18945V9.19016Z" fill="#767672"/>
<path d="M52.6524 4.96173C53.0525 4.6051 53.4291 4.21993 53.8585 3.90539C54.7408 3.25917 55.7629 3.07515 56.8264 3.2014C57.9633 3.33692 58.9705 3.74633 59.6288 4.77057C60.0903 5.48811 60.1745 6.29339 60.1795 7.10793C60.1944 9.51876 60.1844 11.9303 60.1894 14.3418C60.1894 14.7084 60.0568 14.8925 59.6595 14.8739C59.1723 14.8511 58.683 14.8518 58.1959 14.8696C57.8428 14.8825 57.7066 14.7348 57.7087 14.3925C57.7158 13.3896 57.713 12.3875 57.7087 11.3854C57.7023 9.96312 57.713 8.54016 57.6723 7.11863C57.6517 6.40537 57.387 5.75345 56.7116 5.3961C55.5183 4.76487 53.7794 5.15502 53.0739 6.4446C52.7259 7.07797 52.6545 7.75414 52.6503 8.44173C52.6381 10.3383 52.646 12.2349 52.6431 14.1314C52.6431 14.8119 52.5818 14.8682 51.8956 14.8675C51.5162 14.8675 51.1367 14.8675 50.7544 14.8675C50.2302 14.8618 50.1367 14.7748 50.1353 14.2505C50.132 12.4217 50.132 10.5929 50.1353 8.76412C50.1353 7.21967 50.1353 5.67427 50.1353 4.12792C50.1353 3.52522 50.2209 3.43749 50.8072 3.43249C51.2002 3.43249 51.5918 3.44676 51.9862 3.4275C52.3635 3.40824 52.4955 3.58299 52.4905 3.93677C52.4862 4.277 52.5112 4.61722 52.5226 4.95816L52.6524 4.96173Z" fill="#767672"/>
<path d="M17.9897 9.15987C17.8969 10.3054 18.1252 11.371 18.8755 12.2718C19.6437 13.1948 20.6815 13.3417 21.7607 13.1049C22.6808 12.9016 23.2699 12.249 23.5488 11.3403C23.7571 10.662 23.782 10.6392 24.4761 10.6392C24.9375 10.6392 25.3983 10.6392 25.8591 10.6392C26.133 10.6392 26.2285 10.7775 26.1608 11.0315C25.7913 12.4095 25.2243 13.657 23.9097 14.4059C22.7507 15.0664 21.5096 15.2761 20.1951 15.0928C19.071 14.9366 18.0553 14.5557 17.2029 13.769C16.3673 13.0044 15.8101 11.9832 15.6195 10.8667C15.3613 9.44018 15.3691 8.00225 15.8905 6.61923C16.5482 4.87674 17.7678 3.75692 19.6095 3.33823C20.7321 3.08288 21.842 3.14993 22.9547 3.39101C24.5003 3.72696 25.9268 5.21054 26.1729 6.75547C26.2357 7.14633 26.1572 7.24334 25.7585 7.24762C25.2428 7.25261 24.7257 7.27615 24.2136 7.2362C24.0381 7.22194 23.827 7.07643 23.7193 6.92807C23.5153 6.64848 23.404 6.30183 23.2015 6.02152C22.8263 5.50298 22.2871 5.23693 21.6565 5.16061C20.7842 5.05362 19.9554 5.12495 19.2314 5.70697C18.4255 6.35675 18.1387 7.25832 17.9954 8.22407C17.9519 8.53149 17.9897 8.84818 17.9897 9.15987Z" fill="#767672"/>
<path d="M28.109 0.00366745C28.8601 0.00366745 29.5505 0.0115142 30.2402 0.000102012C30.5305 -0.00489082 30.5255 0.174137 30.5255 0.373137C30.5255 1.1853 30.5255 1.99771 30.5255 2.81036C30.5255 3.37098 30.5883 3.43089 31.1618 3.43517C31.5683 3.43517 31.9756 3.44159 32.3814 3.43517C32.7224 3.43018 32.8807 3.58852 32.8686 3.92946C32.86 4.21477 32.8572 4.50007 32.8686 4.78538C32.885 5.11847 32.7188 5.25756 32.4078 5.26112C31.9742 5.2654 31.5398 5.26112 31.1068 5.26825C30.6511 5.27753 30.527 5.39379 30.5262 5.85527C30.5262 7.79178 30.517 9.72828 30.5391 11.6648C30.5505 12.6741 30.962 13.045 31.9806 13.0285C32.8486 13.0143 32.8779 12.8659 32.8693 13.9301C32.8615 14.8673 32.8693 14.8852 31.9421 14.9144C31.1339 14.9394 30.3301 14.9943 29.5305 14.7176C28.6711 14.4194 28.3037 13.7853 28.1461 12.9786C28.0748 12.6113 28.0819 12.2247 28.0805 11.846C28.0755 9.88235 28.0805 7.91873 28.0805 5.95512C28.0805 5.31319 28.0313 5.26754 27.385 5.26612C27.358 5.2679 27.3308 5.2679 27.3037 5.26612L26.2531 5.1149C26.2403 4.64558 26.2053 4.17482 26.2331 3.70764C26.2396 3.60992 26.4721 3.4637 26.6126 3.44801C26.9502 3.42065 27.2894 3.41684 27.6276 3.4366C27.9578 3.44516 28.0862 3.29394 28.0819 2.96798C28.0719 2.15558 28.0819 1.34317 28.0819 0.530055C28.0848 0.369571 28.099 0.211227 28.109 0.00366745Z" fill="#767672"/>
<path d="M36.2627 9.19075C36.2627 10.8688 36.2627 12.5471 36.2627 14.2257C36.2627 14.8269 36.2149 14.8676 35.6129 14.8733C35.1664 14.8733 34.7192 14.8633 34.2727 14.8769C33.9211 14.8876 33.7791 14.7157 33.7734 14.3876C33.7734 14.2927 33.7734 14.1978 33.7734 14.1023C33.7734 10.7999 33.7734 7.49747 33.7734 4.19506C33.7734 3.4818 33.8177 3.44043 34.5366 3.43972C34.9296 3.43972 35.3212 3.43473 35.7156 3.43972C36.1814 3.44828 36.2599 3.52317 36.2613 3.99107C36.2646 5.72429 36.2651 7.45752 36.2627 9.19075Z" fill="#767672"/>
<path d="M11.7266 9.14159C11.7266 7.47731 11.7266 5.81303 11.7266 4.14876C11.7266 3.51181 11.7979 3.44049 12.4177 3.4355C12.8107 3.4355 13.2023 3.43122 13.596 3.4355C14.1367 3.4412 14.2422 3.54177 14.2437 4.07743C14.2472 5.39055 14.2437 6.70366 14.2437 8.01678C14.2437 10.0738 14.2437 12.1311 14.2437 14.1886C14.2437 14.8142 14.1895 14.8669 13.5782 14.8698C13.2394 14.8698 12.9013 14.8698 12.5625 14.8698C11.7544 14.8698 11.7287 14.8427 11.7287 14.0139C11.7273 12.39 11.7266 10.7659 11.7266 9.14159Z" fill="#767672"/>
<path d="M66.5686 5.9097C66.6564 7.12225 65.4552 8.28629 64.2013 8.27559C62.6835 8.26275 61.7134 7.09871 61.7227 5.86976C61.7334 4.49245 62.7926 3.43397 64.187 3.42969C65.4117 3.42826 66.6414 4.40258 66.5686 5.9097Z" fill="#767672"/>
<path d="M66.569 12.4692C66.6482 13.8893 65.3715 14.8907 64.2153 14.9007C63.5648 14.9102 62.937 14.6618 62.4692 14.2098C62.0014 13.7578 61.7316 13.1389 61.7188 12.4884C61.7081 11.2124 62.7416 10.089 64.1325 10.0441C65.395 10.002 66.6646 11.1461 66.569 12.4692Z" fill="#767672"/>
</g>
<defs>
<clipPath id="clip0_1116_84">
<rect width="97" height="19.3208" fill="white"/>
</clipPath>
</defs>
</svg>
