<svg viewBox="0 0 97 18" fill="none" xmlns="http://www.w3.org/2000/svg">
<g style="mix-blend-mode:multiply" clip-path="url(#clip0_1116_211)">
<path d="M9.01797 0C9.40445 0.0505208 9.79397 0.0843707 10.1769 0.155605C10.8281 0.276855 11.4642 0.443572 12.0624 0.750233C12.9566 1.20846 13.5138 1.91828 13.7619 2.88373C13.9806 3.73551 14.0241 4.59538 13.8164 5.45069C13.5603 6.50304 12.8565 7.21539 11.9638 7.76657C11.836 7.84538 11.7037 7.91813 11.547 8.00553C11.7143 8.06666 11.8572 8.11718 11.9992 8.17124C13.5042 8.74415 14.3449 9.87581 14.6521 11.4142C14.9132 12.7206 14.748 13.9786 14.0266 15.128C13.4507 16.0459 12.5873 16.5996 11.5971 16.9684C10.5285 17.367 9.41658 17.5358 8.27632 17.5358C5.51789 17.5358 2.75911 17.5383 0 17.5434V0H9.01797ZM3.8997 9.73587V14.6187H4.13665C5.36178 14.6187 6.58691 14.6278 7.81153 14.6137C8.22761 14.6142 8.64283 14.576 9.05182 14.4995C9.97887 14.3141 10.6043 13.7841 10.811 12.8247C10.9127 12.3408 10.8967 11.8396 10.7645 11.3631C10.5826 10.6751 10.1719 10.1739 9.48377 9.9617C9.10234 9.84399 8.69767 9.748 8.30158 9.73991C6.87538 9.71213 5.44766 9.72577 4.02045 9.72425C3.98407 9.72577 3.9477 9.73183 3.8997 9.73587ZM3.90273 2.99488V7.1199C3.94972 7.12243 3.98054 7.12596 4.01136 7.12596C5.30519 7.12596 6.59903 7.129 7.89287 7.11536C8.17022 7.11215 8.44599 7.0731 8.71333 6.99916C9.35595 6.82183 9.88642 6.49395 10.0774 5.79777C10.1882 5.37512 10.2078 4.93374 10.135 4.50292C10.041 3.89667 9.69949 3.49251 9.14326 3.2399C8.70524 3.04388 8.24702 2.99387 7.7792 2.99336H3.90577L3.90273 2.99488Z" fill="#767672"/>
<path d="M33.6084 -0.00188653C33.6054 0.0546968 33.5998 0.111279 33.5998 0.167863C33.5998 2.24494 33.5998 4.32219 33.5998 6.39961V6.62089C33.6569 6.57492 33.6907 6.55976 33.7059 6.53349C34.3571 5.41243 35.3958 4.84407 36.6113 4.60814C37.8147 4.37473 39.003 4.49144 40.0973 5.10223C41.0809 5.64937 41.5796 6.54662 41.7811 7.60908C41.9024 8.24199 41.9668 8.88448 41.9736 9.52887C41.9948 12.1615 41.9832 14.7941 41.9837 17.4273C41.9837 17.4824 41.9777 17.5374 41.9736 17.6026H38.4877V17.3672C38.4877 15.088 38.4877 12.8087 38.4877 10.5292C38.4877 9.88403 38.4458 9.24292 38.2305 8.62556C37.9274 7.76064 37.3631 7.33222 36.4451 7.3206C36.0927 7.315 35.7407 7.34889 35.3958 7.42164C34.6223 7.58786 34.1222 8.07842 33.8701 8.8236C33.6872 9.3892 33.5975 9.98076 33.6043 10.5752C33.5979 12.8355 33.5954 15.0958 33.5968 17.3561V17.5965H30.0906V17.3268C30.0906 11.6317 30.0906 5.93667 30.0906 0.241624C30.0906 0.159781 30.0851 0.0779375 30.082 -0.00390625L33.6084 -0.00188653Z" fill="#767672"/>
<path d="M90.4441 18C90.0763 17.9494 89.706 17.9141 89.3418 17.8484C87.5048 17.5084 86.0847 16.552 85.1637 14.9182C84.5898 13.9017 84.3468 12.7801 84.3104 11.6156C84.2715 10.3829 84.4241 9.18508 84.9773 8.06301C85.9225 6.14625 87.4432 4.99286 89.5504 4.62304C90.6548 4.42904 91.7587 4.4341 92.8237 4.80239C94.3262 5.32074 95.4129 6.33115 96.1247 7.74927C96.593 8.68391 96.9032 9.6625 96.9694 10.7113C96.9757 10.7545 96.9856 10.7971 96.9992 10.8386V12.0132C96.9825 12.1724 96.8593 12.1254 96.7688 12.1254C93.8386 12.1274 90.9084 12.1274 87.9782 12.1254H87.7539C87.7546 12.7552 87.9051 13.3758 88.1929 13.9361C88.486 14.509 88.9351 14.905 89.5444 15.1071C90.3201 15.3743 91.1587 15.3997 91.9492 15.1799C92.6938 14.9738 93.2753 14.5398 93.6436 13.8532C93.7219 13.7072 93.7982 13.6643 93.9563 13.6658C94.8213 13.6739 95.6867 13.6693 96.5516 13.6693H96.7805C96.7102 13.8577 96.6516 14.023 96.588 14.1861C95.7968 16.2272 94.3514 17.4857 92.176 17.8651C91.8415 17.9232 91.5026 17.9545 91.1656 17.9984L90.4441 18ZM87.8933 9.89843H93.581C93.2006 7.92054 92.318 7.04198 90.3663 7.21577C88.7896 7.35673 87.8964 8.48183 87.8933 9.89843Z" fill="#767672"/>
<path d="M22.1662 17.9979C21.7984 17.9474 21.4281 17.912 21.0638 17.8464C19.2259 17.5069 17.8067 16.549 16.8847 14.9162C16.3497 13.9694 16.1037 12.9256 16.044 11.8394C15.9657 10.4087 16.1506 9.03199 16.8574 7.75684C17.8219 6.01589 19.2875 4.97517 21.2401 4.62455C22.4077 4.41539 23.5712 4.44369 24.6973 4.84331C26.1528 5.35963 27.2087 6.34478 27.8882 7.72299C28.1243 8.18947 28.3184 8.67606 28.4681 9.17698C28.5813 9.57206 28.6056 9.99845 28.6248 10.4132C28.6495 10.9533 28.6308 11.4949 28.6308 12.0617H19.4108C19.4114 12.5685 19.5009 13.0712 19.675 13.547C20.0882 14.6853 20.9456 15.2107 22.1101 15.3042C22.681 15.3501 23.2453 15.3193 23.7914 15.1223C24.4861 14.8697 25.016 14.4342 25.351 13.7683C25.365 13.7434 25.3845 13.7221 25.4079 13.7058C25.4314 13.6895 25.4582 13.6788 25.4864 13.6743C26.4716 13.6703 27.4567 13.6743 28.4419 13.6743C28.4595 13.6786 28.4765 13.6852 28.4924 13.6941C27.875 15.4941 26.8626 16.9274 24.9751 17.5801C24.3614 17.7955 23.7211 17.9259 23.072 17.9676C23.0102 17.9746 22.9488 17.985 22.8881 17.9989L22.1662 17.9979ZM25.1939 9.90196C25.1272 9.40584 25.007 8.95267 24.7816 8.53082C24.4851 7.97509 24.0617 7.55628 23.4529 7.36228C22.3587 7.01368 20.986 7.08441 19.9796 8.26862C19.5795 8.73998 19.5517 9.32198 19.4623 9.90196H25.1939Z" fill="#767672"/>
<path d="M52.201 16.4786C51.7851 16.878 51.3026 17.2018 50.7753 17.4354C49.6507 17.9326 48.4675 18.0089 47.2677 17.8987C46.5091 17.8355 45.7784 17.5833 45.1423 17.1652C44.3845 16.6635 43.9055 15.9754 43.7241 15.0817C43.5554 14.2491 43.5397 13.4145 43.855 12.6193C44.3097 11.476 45.1913 10.8081 46.3699 10.4949C47.3687 10.2297 48.3948 10.1478 49.4118 10.0023C49.9781 9.92148 50.5429 9.82246 51.1007 9.69615C51.3144 9.64563 51.5114 9.50872 51.7069 9.39303C51.9025 9.27734 51.9964 9.10405 52.0424 8.88782C52.194 8.17244 51.9601 7.49951 51.3775 7.15142C51.1361 7.00196 50.8645 6.90792 50.5823 6.87608C50.0888 6.83566 49.581 6.81596 49.094 6.8877C48.1978 7.01905 47.6521 7.63541 47.5203 8.55842C47.5051 8.66401 47.4925 8.73272 47.3581 8.73221C46.2653 8.72767 45.1731 8.72868 44.0808 8.72817C44.0621 8.72817 44.0434 8.72211 43.9707 8.71049C44.0106 8.41697 44.0298 8.11788 44.094 7.8289C44.3157 6.82909 44.9331 6.10564 45.7546 5.54233C46.4538 5.06339 47.2424 4.80574 48.073 4.66983C49.5527 4.42784 51.033 4.48442 52.5011 4.74359C53.3322 4.89011 54.0794 5.24325 54.7013 5.84748C55.2666 6.39664 55.5127 7.06705 55.5506 7.82991C55.5693 8.21438 55.5602 8.60036 55.5612 8.98532C55.5662 11.0249 55.5612 13.0644 55.5809 15.1039C55.5859 15.5838 55.6314 16.0624 55.7168 16.5347C55.783 16.9004 55.9386 17.2495 56.0568 17.6133C56.0269 17.6187 55.9967 17.6216 55.9663 17.6219C54.8867 17.6219 53.8066 17.6219 52.727 17.6259C52.5895 17.6259 52.5057 17.5819 52.4708 17.4587C52.3779 17.1374 52.291 16.811 52.201 16.4786ZM52.0778 11.4295L52.0121 11.4007C51.5781 11.7478 51.0522 11.8372 50.5333 11.9352C49.8407 12.0661 49.1415 12.1651 48.4539 12.3177C47.5445 12.5198 47.0696 13.1644 47.0984 14.0899C47.1072 14.3913 47.2105 14.6822 47.3937 14.9216C47.577 15.1609 47.8309 15.3366 48.1195 15.4237C48.7373 15.6162 49.3638 15.6015 49.9923 15.5111C50.3434 15.4606 50.6874 15.3767 50.9799 15.1605C51.566 14.728 51.9504 14.1728 51.9904 13.4251C52.0272 12.7602 52.0495 12.0949 52.0778 11.4295Z" fill="#767672"/>
<path d="M69.4146 17.6082H65.912V17.3556C65.912 15.0953 65.912 12.8352 65.912 10.5752C65.912 9.92403 65.8796 9.27534 65.6644 8.6509C65.3507 7.74153 64.7662 7.30907 63.8022 7.26764C62.9974 7.23329 62.2765 7.42981 61.692 8.01232C61.2307 8.47307 61.0488 9.06315 60.9726 9.68456C60.9153 10.1669 60.8863 10.6523 60.8857 11.138C60.8766 13.2402 60.8821 15.3424 60.8816 17.4451V17.6815H57.3906V4.85174H60.8336V6.6043L60.8978 6.64068C60.9129 6.60683 60.9256 6.57147 60.9438 6.53964C61.5465 5.50699 62.4862 4.94975 63.6143 4.68047C64.847 4.38644 66.0575 4.47131 67.2265 4.97703C67.9621 5.29531 68.4486 5.86519 68.8068 6.56742C69.1575 7.26257 69.3514 8.02623 69.3747 8.80449C69.3996 9.43499 69.4121 10.066 69.4121 10.6975C69.4168 12.9204 69.4168 15.1433 69.4121 17.3662L69.4146 17.6082Z" fill="#767672"/>
<path d="M83.1638 9.39166H79.748C79.7147 9.21131 79.6884 9.03196 79.647 8.85614C79.4323 7.92504 78.8675 7.35972 77.9177 7.17734C76.636 6.9313 75.5937 7.38649 74.9107 8.49593C74.6419 8.93294 74.4878 9.41036 74.3792 9.90445C74.2034 10.7042 74.2483 11.5095 74.3352 12.3163C74.4043 13.0295 74.6698 13.7096 75.1021 14.2811C75.819 15.2283 76.8047 15.5123 78.0455 15.2142C79.0913 14.9616 79.7895 14.1336 79.9491 13.0282C79.9622 12.9342 79.9769 12.8412 79.9931 12.7331H83.378C83.288 13.1211 83.2198 13.5036 83.1102 13.8739C82.4534 16.1084 80.9282 17.3866 78.6674 17.8029C77.1472 18.0828 75.6574 17.9544 74.2483 17.2785C72.4715 16.4287 71.3479 15.0242 70.9357 13.1065C70.5169 11.1649 70.7553 9.2881 71.7385 7.53755C72.5574 6.07851 73.7992 5.15701 75.4108 4.74223C76.982 4.33807 78.534 4.45426 80.0375 5.04283C81.9573 5.79458 82.9864 7.22988 83.1638 9.28052C83.1663 9.31134 83.1638 9.34316 83.1638 9.39166Z" fill="#767672"/>
<path d="M18.7266 1.22266H25.8288V2.90651H18.7266V1.22266Z" fill="#767672"/>
</g>
<defs>
<clipPath id="clip0_1116_211">
<rect width="97" height="17.998" fill="white"/>
</clipPath>
</defs>
</svg>
