<svg viewBox="0 0 95 17" fill="none" xmlns="http://www.w3.org/2000/svg">
<g style="mix-blend-mode:multiply" clip-path="url(#clip0_1116_17)">
<path d="M79.1369 0V15.8916C77.5502 15.8916 75.9926 15.9003 74.4367 15.888C73.6576 15.8824 72.701 16.1009 72.1533 15.7345C71.6507 15.3987 71.576 14.4185 71.3344 13.7147C70.2462 10.5345 69.162 7.35309 68.0817 4.17047C67.944 3.76663 67.8631 3.26963 67.1511 3.57162V15.8317H63.2734V0H70.4203C71.7618 4.00361 73.0967 8.00978 74.4638 12.0047C74.5365 12.2171 74.8922 12.3348 75.2996 12.6291V0H79.1369Z" fill="#767672"/>
<path d="M10.8075 0C12.0124 1.02061 13.2009 2.06118 14.4303 3.0521C14.873 3.41039 15.0849 3.76509 15.0767 4.35166C15.0419 6.76857 15.0865 9.1865 15.0373 11.6034C15.0291 11.9919 14.7876 12.4833 14.4902 12.7402C13.2439 13.8151 12.0784 15.2068 10.6094 15.7391C9.17165 16.2596 7.40069 15.8839 5.77611 15.8926C3.89152 15.8998 2.00692 15.8926 0 15.8926V0H10.8075ZM3.96778 12.278C5.40503 12.278 6.76447 12.3123 8.12085 12.2575C8.54465 12.2406 8.98534 12.0323 9.37178 11.8261C10.8305 11.0465 11.4074 9.84063 11.1202 8.20581C11.0373 7.73083 11.1259 7.2282 11.1023 6.7399C11.0803 6.29102 11.1806 5.68603 10.9324 5.42652C10.2834 4.74782 9.53813 3.85876 8.71202 3.71135C7.18111 3.43752 5.56472 3.63304 3.96778 3.63304V12.278Z" fill="#767672"/>
<path d="M37.9986 0V3.60642H29.7339V6.11085H35.3933V9.62514H29.7431V12.2493H37.9561V15.824H25.7969V0H37.9986Z" fill="#767672"/>
<path d="M94.9986 15.8916H82.7969V0H94.9986V3.62741H86.7186V6.16511H92.3647V9.65586H86.714V12.2662H94.9986V15.8916Z" fill="#767672"/>
<path d="M44.9719 0V12.233H52.7559V15.8363H41.2073C41.1781 15.7698 41.1172 15.6956 41.1172 15.6213C41.1206 10.4139 41.1273 5.20677 41.1372 0H44.9719Z" fill="#767672"/>
<path d="M22.1381 0.00153546V15.8317H18.2123V14.8198C18.2123 10.2214 18.2111 5.62273 18.2088 1.02368C18.2088 0.682794 18.1576 0.342421 18.1289 0L22.1381 0.00153546Z" fill="#767672"/>
<path d="M59.6149 0V15.8389H55.814C55.7895 15.6597 55.7414 15.4714 55.7414 15.283C55.7373 10.3315 55.7373 5.37995 55.7414 0.42841C55.7414 0.285606 55.7675 0.142803 55.7813 0H59.6149Z" fill="#767672"/>
</g>
<defs>
<clipPath id="clip0_1116_17">
<rect width="95" height="16.0155" fill="white"/>
</clipPath>
</defs>
</svg>
