<svg viewBox="0 0 91 24" fill="none" xmlns="http://www.w3.org/2000/svg">
<g style="mix-blend-mode:multiply" clip-path="url(#clip0_1116_141)">
<path d="M58.2763 0.89444C57.598 0.89444 56.9626 0.899814 56.3273 0.888469C56.2371 0.888469 56.1482 0.805467 56.0586 0.760682C56.144 0.721869 56.2294 0.648423 56.3148 0.647826C58.8721 0.641855 61.4296 0.641855 63.9873 0.647826C64.0733 0.647826 64.1592 0.718885 64.2452 0.756504C64.158 0.802483 64.0709 0.886677 63.9825 0.888469C63.3471 0.899814 62.7118 0.89444 62.0454 0.89444C62.0388 1.02223 62.0287 1.12672 62.0293 1.23182C62.0424 7.14498 62.0566 13.0583 62.0717 18.9719C62.0777 21.1502 63.6547 22.8198 65.821 22.9882C67.3509 23.1076 68.7733 22.8323 70.035 21.9229C71.0889 21.1628 71.7667 20.1273 72.1691 18.905C72.1971 18.7994 72.2084 18.6899 72.2026 18.5808C72.2026 12.787 72.2026 6.99311 72.2026 1.19898V0.89444H71.0226C70.6447 0.89444 70.2661 0.901008 69.8881 0.888469C69.8152 0.888469 69.7448 0.809648 69.6731 0.769043C69.745 0.723123 69.8205 0.68318 69.8988 0.649617C69.958 0.638981 70.0185 0.637772 70.078 0.646035H90.4998V8.66726L90.4401 8.70607C90.4012 8.63442 90.3409 8.56635 90.3284 8.49051C90.1905 7.66767 90.1015 6.83407 89.9188 6.02138C89.6453 4.80264 89.1425 3.68184 88.2593 2.76584C87.2442 1.71609 85.9676 1.17509 84.5571 1.01267C83.4459 0.884288 82.3155 0.926685 81.1935 0.896232C80.935 0.889066 80.677 0.896232 80.394 0.896232V11.1859C81.7411 11.2576 83.0775 11.2719 84.2156 10.3607C84.6234 10.0347 84.8808 9.58445 85.0241 9.0948C85.1961 8.50604 85.3089 7.90055 85.4481 7.30342C85.4696 7.20967 85.4917 7.11592 85.5138 7.02277L85.6159 7.02635C85.6339 7.11198 85.6459 7.19878 85.6517 7.2861C85.6517 10.0934 85.6517 12.8999 85.6517 15.7056C85.6517 15.7916 85.5997 15.8782 85.5717 15.9642C85.5221 15.8836 85.4469 15.8089 85.4278 15.7253C85.334 15.2984 85.2677 14.8654 85.1692 14.4397C84.6628 12.25 82.7765 11.4182 81.1219 11.5018C80.883 11.5138 80.6442 11.5448 80.391 11.5687V22.566C81.5028 22.566 82.6135 22.5756 83.7236 22.566C84.7876 22.5547 85.7848 22.2585 86.7277 21.7826C88.8415 20.7143 90.0346 18.945 90.5135 16.6736C90.6646 15.957 90.6825 15.2148 90.7691 14.4851C90.7774 14.4146 90.8407 14.3507 90.8784 14.2844C90.919 14.3442 90.9978 14.4098 90.9978 14.4725C91.0026 17.2193 91.0026 19.9661 90.9978 22.7129C90.9909 22.7461 90.9807 22.7785 90.9673 22.8096H74.9959C74.9468 22.8178 74.8965 22.8166 74.8478 22.8061C74.7819 22.7705 74.7192 22.7294 74.6603 22.6831C74.7201 22.6413 74.7833 22.5636 74.8455 22.5636C75.3232 22.5535 75.8009 22.5577 76.2786 22.5577H76.4804V0.917727H72.5131V1.29332C72.5131 6.86811 72.5005 12.4429 72.5262 18.0177C72.5304 18.8758 72.2874 19.6186 71.8694 20.3286C70.8363 22.071 69.2736 23.0276 67.2924 23.2497C65.1427 23.4886 63.0617 23.1757 61.1336 22.1427C59.7602 21.4058 58.7731 20.3244 58.4387 18.7545C58.3544 18.3253 58.3144 17.8885 58.3193 17.451C58.3002 12.0769 58.2871 6.70092 58.2799 1.32318L58.2763 0.89444Z" fill="#767672"/>
<path d="M16.8828 11.6066C16.9228 8.59463 17.8699 6.15118 19.5597 3.986C20.8137 2.37375 22.3579 1.1359 24.332 0.507126C26.4506 -0.167032 28.4946 0.0789837 30.406 1.16815C33.5911 2.98342 35.5461 5.77559 36.142 9.34104C36.8818 13.7664 35.4959 17.6662 32.3281 20.797C28.6552 24.4263 22.9837 23.9498 19.7711 19.8923C18.2837 18.0137 17.4555 15.8509 17.084 13.503C16.9724 12.7984 16.9318 12.0813 16.8828 11.6066ZM20.9469 12.0801C21.0305 13.4296 21.0878 14.7821 21.2048 16.1292C21.3177 17.4286 21.5476 18.7106 22.0295 19.9335C22.6003 21.3827 23.5223 22.4779 25.1118 22.8153C25.6954 22.9364 26.2915 22.9861 26.8871 22.9633C28.4211 22.9078 29.6255 22.2295 30.4597 20.9206C30.8914 20.2428 31.1852 19.5084 31.4056 18.7398C31.8236 17.2685 32.0027 15.759 32.0875 14.2369C32.2374 11.6197 32.2541 9.00546 31.8254 6.40795C31.602 5.05724 31.2193 3.76088 30.5188 2.56483C28.8308 -0.314523 24.5153 -0.480524 22.7347 2.51348C22.1914 3.44097 21.7929 4.44597 21.553 5.49375C21.0388 7.65953 20.963 9.86413 20.9469 12.0801Z" fill="#767672"/>
<path d="M53.8467 0V7.98242L53.7661 7.99973C53.7381 7.90658 53.7064 7.81462 53.6825 7.71908C53.2711 5.89366 52.5898 4.18707 51.4248 2.7032C50.4933 1.5173 49.3301 0.683115 47.8223 0.374399C46.0309 0.00477637 44.7346 0.569064 43.8215 2.15743C43.1581 3.31466 42.8435 4.58654 42.6321 5.88709C42.1806 8.66314 42.2021 11.4589 42.3156 14.2564C42.3807 15.8502 42.5544 17.4302 42.9897 18.9738C43.2614 19.9375 43.6341 20.8553 44.2694 21.6453C45.0152 22.5727 45.9843 23.0468 47.1768 23.0283C48.3961 23.0092 49.56 22.7799 50.4933 21.9194C51.1835 21.2835 51.5962 20.5036 51.5914 19.5309C51.5818 17.7288 51.5884 15.9272 51.5884 14.1251V13.7668C51.008 13.7668 50.4539 13.7638 49.9003 13.7668C49.717 13.7668 49.6018 13.7322 49.6931 13.5029H57.1202C57.2074 13.7232 57.1077 13.7692 56.9184 13.7674C56.3929 13.7614 55.8674 13.7674 55.3025 13.7674V22.9136C55.1968 22.802 55.1377 22.7661 55.1186 22.7154C54.7603 21.7797 53.8939 21.3581 52.8495 21.5904C52.0034 21.7791 51.1949 22.1326 50.3673 22.4067C49.5964 22.6616 48.8386 23.0038 48.0462 23.1381C46.5307 23.3901 45.0767 23.051 43.7176 22.3541C41.6779 21.3091 40.3355 19.6157 39.4135 17.5669C38.3781 15.265 37.8879 12.8347 38.1673 10.3267C38.6313 6.16834 40.6072 2.91279 44.2867 0.801943C45.7927 -0.0615047 47.4055 -0.132563 49.0482 0.378579C49.6453 0.564286 50.2425 0.761936 50.8205 0.994219C51.9198 1.43371 53.0466 1.09693 53.7076 0.0985259C53.7291 0.0722522 53.7685 0.0567272 53.8467 0Z" fill="#767672"/>
<path d="M10.3456 23.0692C10.2859 22.9187 10.2441 22.8208 10.2077 22.7204C7.61815 15.5533 5.0296 8.38518 2.44204 1.21605C2.36023 0.988547 2.25394 0.917489 2.01629 0.92346C1.35168 0.940777 0.68648 0.92943 0.0242646 0.92943C-0.0808301 0.611758 0.130554 0.658931 0.28939 0.658931C2.70776 0.658931 5.12593 0.658931 7.54391 0.658931C7.69319 0.658931 7.84605 0.639823 7.99056 0.666694C8.06998 0.682219 8.13506 0.775372 8.20672 0.833293L8.14999 0.931223H6.1311L11.983 16.8351C13.7194 11.4974 15.429 6.24328 17.1541 0.939582H15.1406C15.06 0.72163 15.1221 0.655947 15.3143 0.656544C16.6077 0.661321 17.9015 0.661321 19.1957 0.656544C19.3748 0.656544 19.4668 0.702521 19.3868 0.92943C18.8595 0.92943 18.3239 0.94197 17.7888 0.924056C17.5446 0.915697 17.4341 0.98377 17.3547 1.23098C15.0618 8.40528 12.7628 15.5774 10.4579 22.7473C10.4286 22.8369 10.3958 22.9253 10.3456 23.0692Z" fill="#767672"/>
</g>
<defs>
<clipPath id="clip0_1116_141">
<rect width="91" height="23.3286" fill="white"/>
</clipPath>
</defs>
</svg>
